<svg xmlns="http://www.w3.org/2000/svg" viewBox="0 0 800 800">
  <defs>
    <linearGradient id="bg" x1="0" x2="1" y1="0" y2="1">
      <stop offset="0%" stop-color="#dbeafe"/>
      <stop offset="100%" stop-color="#93c5fd"/>
    </linearGradient>
    <linearGradient id="shirt" x1="0" x2="1" y1="0" y2="1">
      <stop offset="0%" stop-color="#1d4ed8"/>
      <stop offset="100%" stop-color="#2563eb"/>
    </linearGradient>
  </defs>
  <rect width="800" height="800" fill="url(#bg)"/>
  <circle cx="400" cy="300" r="130" fill="#f1c27d"/>
  <path d="M278 268c14-95 83-144 141-144 83 0 133 54 141 132-17-11-40-15-59-13-49 4-83-14-105-36-27 31-66 52-118 61z" fill="#1f2937"/>
  <path d="M265 640c24-98 92-154 135-154h0c43 0 111 56 135 154" fill="url(#shirt)"/>
  <rect x="320" y="430" width="160" height="78" rx="24" fill="#f1c27d"/>
  <circle cx="348" cy="304" r="12" fill="#1f2937"/>
  <circle cx="452" cy="304" r="12" fill="#1f2937"/>
  <path d="M356 365c29 25 59 24 88 0" fill="none" stroke="#7c2d12" stroke-width="10" stroke-linecap="round"/>
  <path d="M244 660h312c18 0 32 14 32 32v28H212v-28c0-18 14-32 32-32z" fill="#0f172a" opacity=".08"/>
</svg>